<svg xmlns="http://www.w3.org/2000/svg" viewBox="0 0 1200 675" width="1200" height="675">
  <defs>
    <linearGradient id="bg" x1="0%" y1="0%" x2="100%" y2="100%">
      <stop offset="0%" stop-color="#4338ca"/>
      <stop offset="100%" stop-color="#1d4ed8"/>
    </linearGradient>
  </defs>
  <rect width="1200" height="675" fill="url(#bg)"/>
  <circle cx="1080" cy="90" r="220" fill="#ffffff" opacity="0.06"/>
  <circle cx="100" cy="600" r="260" fill="#ffffff" opacity="0.05"/>

  <text x="90" y="215" font-family="Arial, Helvetica, sans-serif" font-size="44" font-weight="700" fill="#ffffff">Best Sounds for</text>
  <text x="90" y="266" font-family="Arial, Helvetica, sans-serif" font-size="44" font-weight="700" fill="#ffffff">Content Creators</text>
  <text x="90" y="308" font-family="Arial, Helvetica, sans-serif" font-size="22" fill="#dbeafe">TikTok · YouTube Shorts · Livestreams</text>

  <g font-family="Arial, Helvetica, sans-serif" font-size="19" font-weight="600" fill="#3730a3">
    <rect x="90" y="360" width="120" height="42" rx="21" fill="#ffffff"/>
    <text x="150" y="388" text-anchor="middle">TikTok</text>

    <rect x="222" y="360" width="150" height="42" rx="21" fill="#ffffff" opacity="0.92"/>
    <text x="297" y="388" text-anchor="middle">YT Shorts</text>

    <rect x="384" y="360" width="140" height="42" rx="21" fill="#ffffff" opacity="0.85"/>
    <text x="454" y="388" text-anchor="middle">Livestream</text>

    <rect x="536" y="360" width="120" height="42" rx="21" fill="#ffffff" opacity="0.78"/>
    <text x="596" y="388" text-anchor="middle">Reels</text>
  </g>

  <!-- megaphone -->
  <g transform="translate(950,240)">
    <path d="M-70 -20 l90 -35 v170 l-90 -35 z" fill="#ffffff" opacity="0.95"/>
    <rect x="-100" y="-20" width="30" height="55" rx="6" fill="#ffffff" opacity="0.95"/>
    <path d="M25 -55 a95 95 0 0 1 0 190" stroke="#ffffff" stroke-width="10" fill="none" opacity="0.5"/>
    <path d="M25 -30 a65 65 0 0 1 0 140" stroke="#ffffff" stroke-width="10" fill="none" opacity="0.7"/>
  </g>
</svg>
