<svg xmlns="http://www.w3.org/2000/svg" viewBox="0 0 1200 675" width="1200" height="675">
  <defs>
    <linearGradient id="bg" x1="0%" y1="0%" x2="100%" y2="100%">
      <stop offset="0%" stop-color="#2563eb"/>
      <stop offset="100%" stop-color="#312e81"/>
    </linearGradient>
  </defs>
  <rect width="1200" height="675" fill="url(#bg)"/>
  <circle cx="1080" cy="80" r="220" fill="#ffffff" opacity="0.06"/>
  <circle cx="120" cy="620" r="260" fill="#ffffff" opacity="0.05"/>

  <text x="90" y="180" font-family="Arial, Helvetica, sans-serif" font-size="46" font-weight="700" fill="#ffffff">Sound Meme Categories</text>
  <text x="90" y="222" font-family="Arial, Helvetica, sans-serif" font-size="24" fill="#dbeafe">11 categories, hundreds of clips</text>

  <g font-family="Arial, Helvetica, sans-serif" font-size="20" font-weight="600" fill="#1e3a8a">
    <rect x="90" y="270" width="120" height="46" rx="23" fill="#ffffff"/>
    <text x="150" y="300" text-anchor="middle">Games</text>

    <rect x="222" y="270" width="120" height="46" rx="23" fill="#ffffff" opacity="0.95"/>
    <text x="282" y="300" text-anchor="middle">Memes</text>

    <rect x="354" y="270" width="130" height="46" rx="23" fill="#ffffff" opacity="0.9"/>
    <text x="419" y="300" text-anchor="middle">Movies</text>

    <rect x="496" y="270" width="120" height="46" rx="23" fill="#ffffff" opacity="0.85"/>
    <text x="556" y="300" text-anchor="middle">Music</text>

    <rect x="628" y="270" width="140" height="46" rx="23" fill="#ffffff" opacity="0.8"/>
    <text x="698" y="300" text-anchor="middle">Politics</text>

    <rect x="90" y="330" width="130" height="46" rx="23" fill="#ffffff" opacity="0.95"/>
    <text x="155" y="360" text-anchor="middle">Pranks</text>

    <rect x="232" y="330" width="160" height="46" rx="23" fill="#ffffff" opacity="0.9"/>
    <text x="312" y="360" text-anchor="middle">Reactions</text>

    <rect x="404" y="330" width="200" height="46" rx="23" fill="#ffffff" opacity="0.85"/>
    <text x="504" y="360" text-anchor="middle">Sound Effects</text>

    <rect x="616" y="330" width="130" height="46" rx="23" fill="#ffffff" opacity="0.8"/>
    <text x="681" y="360" text-anchor="middle">Sports</text>

    <rect x="90" y="390" width="160" height="46" rx="23" fill="#ffffff" opacity="0.9"/>
    <text x="170" y="420" text-anchor="middle">Television</text>

    <rect x="262" y="390" width="120" height="46" rx="23" fill="#ffffff" opacity="0.85"/>
    <text x="322" y="420" text-anchor="middle">Viral</text>
  </g>

  <g transform="translate(970,300)">
    <circle cx="0" cy="0" r="110" fill="#ffffff" opacity="0.12"/>
    <circle cx="0" cy="0" r="70" fill="#ffffff" opacity="0.9"/>
    <path d="M-25 -10 h50 M-25 10 h35" stroke="#312e81" stroke-width="8" stroke-linecap="round"/>
    <circle cx="-25" cy="-10" r="6" fill="#312e81"/>
    <circle cx="-25" cy="10" r="6" fill="#312e81"/>
  </g>
</svg>
