<svg xmlns="http://www.w3.org/2000/svg" viewBox="0 0 1200 675" width="1200" height="675">
  <defs>
    <linearGradient id="bg" x1="0%" y1="0%" x2="100%" y2="100%">
      <stop offset="0%" stop-color="#2563eb"/>
      <stop offset="100%" stop-color="#4338ca"/>
    </linearGradient>
  </defs>
  <rect width="1200" height="675" fill="url(#bg)"/>
  <circle cx="1080" cy="80" r="220" fill="#ffffff" opacity="0.07"/>
  <circle cx="120" cy="620" r="260" fill="#ffffff" opacity="0.06"/>

  <text x="90" y="230" font-family="Arial, Helvetica, sans-serif" font-size="58" font-weight="700" fill="#ffffff">Sound Meme</text>
  <text x="90" y="285" font-family="Arial, Helvetica, sans-serif" font-size="26" fill="#dbeafe">Free meme &amp; sound-effect library on SoftwarePays</text>

  <!-- waveform bars -->
  <g fill="#ffffff" opacity="0.95">
    <rect x="760" y="360" width="18" height="60" rx="9"/>
    <rect x="792" y="320" width="18" height="140" rx="9"/>
    <rect x="824" y="280" width="18" height="220" rx="9"/>
    <rect x="856" y="240" width="18" height="300" rx="9"/>
    <rect x="888" y="290" width="18" height="200" rx="9"/>
    <rect x="920" y="330" width="18" height="120" rx="9"/>
    <rect x="952" y="360" width="18" height="60" rx="9"/>
  </g>
  <circle cx="855" cy="150" r="70" fill="#ffffff" opacity="0.15"/>
  <path d="M835 120 v60 l45 -30 z" fill="#ffffff"/>
</svg>
